
<svg width="35px" height="35px" viewBox="0 0 35 35" version="1.1" xmlns="http://www.w3.org/2000/svg" xmlns:xlink="http://www.w3.org/1999/xlink">
    <desc>Kurtosys - donut </desc>
    <defs></defs>
    <g id="Donut" stroke="none" stroke-width="1" fill="none" fill-rule="evenodd">
        <g id="outsource_factsheets_large" transform="translate(-64.000000, -8.000000)" fill="#FFFFFF" fill-rule="nonzero">
            <g id="kurtosys-donut-white" transform="translate(64.000000, 8.000000)">
                <path d="M17.77,0.8 L17.77,10.53 C21.4564031,11.0066305 24.1512018,14.2458611 23.9490855,17.9574502 C23.7469693,21.6690393 20.7163612,24.5964903 17,24.67 C15.8017599,24.6676582 14.6241804,24.3577688 13.58,23.77 L7.79,31.82 C10.4872212,33.7081276 13.7077632,34.7047123 17,34.67 C26.298029,34.8015288 33.9638835,27.413266 34.1752313,18.1167088 C34.3865791,8.82015169 27.0644001,1.0911512 17.77,0.8 Z" id="_Path_8"></path>
                <path d="M10,17.59 C10.0078894,17.1225584 10.0614779,16.657009 10.16,16.2 L0.94,13.2 C-0.930759047,19.7220445 1.32039719,26.7282747 6.64,30.94 L12.42,22.94 C10.8802223,21.5886068 9.99820885,19.638701 10,17.59 Z" id="_Path_9" opacity="0.75"></path>
                <path d="M16.26,10.53 L16.26,0.8 C9.49673128,1.05308546 3.57579141,5.4154658 1.33,11.8 L5.88,13.29 L10.53,14.82 C11.5091657,12.4477287 13.7079944,10.8014852 16.26,10.53 Z" id="_Path_10" opacity="0.45"></path>
            </g>
        </g>
    </g>
</svg>